<?xml version="1.0" standalone="no"?>
<!DOCTYPE svg PUBLIC "-//W3C//DTD SVG 20010904//EN"
 "http://www.w3.org/TR/2001/REC-SVG-20010904/DTD/svg10.dtd">
<svg version="1.0" xmlns="http://www.w3.org/2000/svg"
 width="120.000000pt" height="51.000000pt" viewBox="0 0 120.000000 51.000000"
 preserveAspectRatio="xMidYMid meet">
<metadata>
Created by potrace 1.11, written by Peter Selinger 2001-2013
</metadata>
<g transform="translate(0.000000,51.000000) scale(0.100000,-0.100000)"
fill="#000000" stroke="none">
<path d="M487 402 c-59 -59 -107 -111 -107 -115 0 -4 99 -7 220 -7 121 0 220
3 220 8 0 8 -212 222 -220 222 -3 0 -54 -48 -113 -108z"/>
<path d="M380 222 c0 -4 50 -57 110 -117 l110 -110 110 110 c61 60 110 113
110 117 0 5 -99 8 -220 8 -121 0 -220 -3 -220 -8z"/>
</g>
</svg>
