<?xml version="1.0" encoding="UTF-8" standalone="no"?>
<svg
   xmlns:dc="http://purl.org/dc/elements/1.1/"
   xmlns:cc="http://creativecommons.org/ns#"
   xmlns:rdf="http://www.w3.org/1999/02/22-rdf-syntax-ns#"
   xmlns:svg="http://www.w3.org/2000/svg"
   xmlns="http://www.w3.org/2000/svg"
   xmlns:sodipodi="http://sodipodi.sourceforge.net/DTD/sodipodi-0.dtd"
   xmlns:inkscape="http://www.inkscape.org/namespaces/inkscape"
   width="24"
   height="24"
   viewBox="0 0 24 24"
   fill="none"
   stroke="#000"
   stroke-width="2"
   stroke-linecap="round"
   stroke-linejoin="round"
   version="1.1"
   id="svg14"
   sodipodi:docname="home.svg"
   inkscape:version="0.92.1 r15371">
  <metadata
     id="metadata20">
    <rdf:RDF>
      <cc:Work
         rdf:about="">
        <dc:format>image/svg+xml</dc:format>
        <dc:type
           rdf:resource="http://purl.org/dc/dcmitype/StillImage" />
        <dc:title></dc:title>
      </cc:Work>
    </rdf:RDF>
  </metadata>
  <defs
     id="defs18" />
  <sodipodi:namedview
     pagecolor="#ffffff"
     bordercolor="#666666"
     borderopacity="1"
     objecttolerance="10"
     gridtolerance="10"
     guidetolerance="10"
     inkscape:pageopacity="0"
     inkscape:pageshadow="2"
     inkscape:window-width="1286"
     inkscape:window-height="910"
     id="namedview16"
     showgrid="false"
     inkscape:zoom="28.540598"
     inkscape:cx="12.134442"
     inkscape:cy="11.487166"
     inkscape:window-x="150"
     inkscape:window-y="50"
     inkscape:window-maximized="0"
     inkscape:current-layer="svg14" />
  <path
     d="M3 9l9-7 9 7v11a2 2 0 0 1-2 2H5a2 2 0 0 1-2-2z"
     id="path10" />
  <polyline
     points="9 22 9 12 15 12 15 22"
     id="polyline12" />
  <path
     style="fill:#f5b057;stroke:none;stroke-width:0.03503781px;stroke-linecap:butt;stroke-linejoin:miter;stroke-opacity:1;opacity:0;fill-opacity:0"
     d="M 4.691287,20.924332 C 4.4454103,20.839405 4.2771743,20.697794 4.1447154,20.464263 L 4.0359063,20.272426 V 14.877651 9.4828762 L 7.6973572,6.633992 C 9.7111552,5.0671056 11.503599,3.6738999 11.680565,3.5379794 l 0.321758,-0.2471283 3.997196,3.1090401 3.997197,3.1090401 -0.0093,5.3642287 -0.0093,5.364229 -0.08159,0.165656 c -0.111464,0.22632 -0.388386,0.468521 -0.611415,0.534753 -0.147165,0.0437 -0.448176,0.0529 -1.730967,0.0529 H 16.001321 L 16.00097,16.374466 16.00062,11.758235 15.9187,11.582312 C 15.812526,11.354325 15.646053,11.190584 15.405872,11.07791 l -0.192905,-0.0905 h -3.223478 c -3.2035523,0 -3.2244643,4.56e-4 -3.3829291,0.07378 -0.2331125,0.107861 -0.4028685,0.272448 -0.5136227,0.497983 l -0.097759,0.199071 -0.00927,4.616231 -0.00927,4.616232 -1.5499164,-0.0011 c -1.4087868,-0.001 -1.5668097,-0.007 -1.735443,-0.06523 z"
     id="path3692"
     inkscape:connector-curvature="0" />
  <path
     style="fill:#f59257;stroke:none;stroke-width:0.03503781px;stroke-linecap:butt;stroke-linejoin:miter;stroke-opacity:1;fill-opacity:1"
     d="M 4.6808998,20.926746 C 4.3527475,20.813311 4.0998733,20.523707 4.0365526,20.188809 4.0133311,20.065992 4.0008685,18.167206 4.0008685,14.752037 V 9.5039949 L 7.9943513,6.3980978 C 10.830968,4.1919431 12.002124,3.3004517 12.037163,3.320683 c 0.02713,0.015665 1.824331,1.4080959 3.993778,3.0942904 l 3.94445,3.0658082 0.0014,5.3457834 c 0.0015,5.933181 0.01807,5.518666 -0.232218,5.811074 -0.06856,0.0801 -0.205668,0.188366 -0.304679,0.24059 l -0.180019,0.09495 -1.619991,0.01039 -1.619992,0.01039 -0.0093,-4.617859 -0.0093,-4.61786 -0.09849,-0.200565 c -0.118219,-0.240743 -0.320365,-0.42293 -0.563399,-0.507772 -0.166712,-0.0582 -0.398217,-0.0625 -3.367459,-0.0625 H 8.7835292 l -0.1849796,0.08359 C 8.4885543,11.120703 8.3513806,11.223755 8.2601555,11.32522 7.9753426,11.642 7.9951786,11.26159 7.9951786,16.406982 v 4.583712 l -1.5679419,-0.0011 c -1.4038682,-0.001 -1.5866097,-0.0076 -1.7463369,-0.06281 z"
     id="path4501"
     inkscape:connector-curvature="0" />
  <path
     style="fill:#a0a0a0;stroke:none;stroke-width:0.03503781px;stroke-linecap:butt;stroke-linejoin:miter;stroke-opacity:1"
     d="m 10.027371,16.996391 v -3.99431 h 1.979637 1.979636 v 3.99431 3.994311 h -1.979636 -1.979637 z"
     id="path4507"
     inkscape:connector-curvature="0" />
  <path
     style="fill:#f5b057;stroke:none;stroke-width:0.03503781px;stroke-linecap:butt;stroke-linejoin:miter;stroke-opacity:1;fill-opacity:1"
     d="m 10.027371,16.996391 v -3.99431 h 1.979637 1.979636 v 3.99431 3.994311 h -1.979636 -1.979637 z"
     id="path4509"
     inkscape:connector-curvature="0" />
  <path
     style="fill:#f5b057;stroke:none;stroke-width:0.03503781px;stroke-linecap:butt;stroke-linejoin:miter;stroke-opacity:1;fill-opacity:1"
     d="m 10.027371,16.996391 v -3.99431 h 1.979637 1.979636 v 3.99431 3.994311 h -1.979636 -1.979637 z"
     id="path4511"
     inkscape:connector-curvature="0" />
  <path
     style="fill:#a0a0a0;stroke:none;stroke-width:0.03503781px;stroke-linecap:butt;stroke-linejoin:miter;stroke-opacity:1"
     d="m 10.027371,16.996391 v -3.99431 h 1.979637 1.979636 v 3.99431 3.994311 h -1.979636 -1.979637 z"
     id="path4513"
     inkscape:connector-curvature="0" />
  <path
     style="fill:#f5b057;stroke:none;stroke-width:0.03503781px;stroke-linecap:butt;stroke-linejoin:miter;stroke-opacity:1;fill-opacity:1"
     d="m 10.027371,16.996391 v -3.99431 h 1.979637 1.979636 v 3.99431 3.994311 h -1.979636 -1.979637 z"
     id="path4515"
     inkscape:connector-curvature="0" />
  <path
     style="fill:#ff9955;stroke:none;stroke-width:0.03503781px;stroke-linecap:butt;stroke-linejoin:miter;stroke-opacity:1"
     d="M 4.7411957,20.92884 C 4.4478787,20.849888 4.2085363,20.634353 4.0759523,20.329769 4.0391082,20.245128 4.0282456,19.180345 4.0201781,14.862607 L 4.0101592,9.5005584 5.0888312,8.6615375 C 8.8816372,5.7113872 11.441278,3.7365506 11.848154,3.4465261 l 0.179714,-0.1281022 1.03121,0.797355 c 0.567165,0.4385453 2.351147,1.8222109 3.964403,3.0748125 l 2.933194,2.2774575 -0.01206,5.4133411 c -0.0066,2.977338 -0.02478,5.457435 -0.04033,5.511326 -0.03663,0.12692 -0.289435,0.378705 -0.496386,0.494372 l -0.162603,0.09088 h -1.60178 -1.601779 l -0.0252,-4.630568 c -0.0246,-4.521641 -0.02683,-4.633771 -0.09466,-4.766721 -0.103663,-0.203195 -0.295712,-0.399138 -0.480347,-0.490085 l -0.164202,-0.08088 -3.266641,-0.0098 c -3.2566457,-0.0098 -3.2670813,-0.0096 -3.4105527,0.06362 -0.079151,0.04038 -0.2273789,0.155157 -0.3293947,0.25506 -0.1699453,0.166426 -0.1887613,0.20096 -0.2246196,0.412257 -0.027426,0.161611 -0.039137,1.579584 -0.039137,4.738864 v 4.508248 l -1.550423,-0.0024 c -1.1348768,-0.0017 -1.5946322,-0.01427 -1.7153694,-0.04676 z"
     id="path4517"
     inkscape:connector-curvature="0" />
  <path
     style="fill:#ffb380;stroke:none;stroke-width:0.03503781px;stroke-linecap:butt;stroke-linejoin:miter;stroke-opacity:1"
     d="m 10.020413,20.969502 c -0.0092,-0.02425 -0.01273,-1.825762 -0.0078,-4.003362 l 0.009,-3.959272 1.988544,-0.009 1.988544,-0.009 -0.0089,4.003359 -0.0089,4.003359 -1.971864,0.0091 c -1.558872,0.0072 -1.975381,-1.75e-4 -1.988657,-0.03504 z"
     id="path4519"
     inkscape:connector-curvature="0" />
  <path
     style="fill:#a0a0a0;stroke:none;stroke-width:0.03503781px;stroke-linecap:butt;stroke-linejoin:miter;stroke-opacity:1"
     d="M 4.7799127,20.945256 C 4.503862,20.891341 4.2604434,20.691085 4.0956494,20.382326 4.0326836,20.264353 4.0298126,20.055197 4.0200817,14.877184 L 4.0099666,9.4946752 6.6479173,7.4462087 C 10.260504,4.6409021 11.811366,3.4496691 11.991897,3.3414425 c 0.027,-0.016185 0.335284,0.2004358 0.823388,0.5785631 2.04862,1.5870342 6.891575,5.3445984 7.008204,5.4375429 l 0.131392,0.1047097 -0.0011,5.2585668 c -6.31e-4,2.892211 -0.01494,5.36553 -0.03179,5.496264 -0.03737,0.289885 -0.124375,0.416046 -0.425676,0.617247 l -0.215093,0.143633 h -1.625265 -1.625266 l -0.0043,-1.44531 c -0.0024,-0.79492 -0.0142,-2.880108 -0.02628,-4.63375 l -0.02196,-3.18844 -0.103325,-0.186526 c -0.104666,-0.188947 -0.251981,-0.327982 -0.474798,-0.448114 -0.117689,-0.06345 -0.2547,-0.06612 -3.398668,-0.06612 -3.1623796,0 -3.2807468,0.0023 -3.4118491,0.06741 -0.1892112,0.09391 -0.4653946,0.379986 -0.5184527,0.537025 -0.034703,0.102712 -0.046765,1.138192 -0.055304,4.747594 l -0.010921,4.616231 -1.5493149,-0.004 c -0.8521232,-0.0022 -1.6061182,-0.01512 -1.6755443,-0.02868 z"
     id="path4521"
     inkscape:connector-curvature="0" />
  <path
     style="fill:#f5b057;stroke:none;stroke-width:0.03503781px;stroke-linecap:butt;stroke-linejoin:miter;stroke-opacity:1;fill-opacity:1"
     d="m 5.0638122,20.976838 c 0.1459584,-0.02409 0.1394519,-0.02612 -0.087594,-0.02731 -0.1348956,-7.08e-4 -0.2610317,-0.0043 -0.2803025,-0.0081 -0.019271,-0.0037 -0.046863,-0.0049 -0.061316,-0.0027 -0.014453,0.0023 -0.026278,-0.01425 -0.026278,-0.03673 0,-0.02248 -0.00958,-0.0313 -0.021285,-0.01959 -0.011707,0.01171 -0.061878,-0.01636 -0.1114928,-0.06236 -0.049614,-0.046 -0.101318,-0.07678 -0.1148966,-0.06839 -0.013578,0.0084 -0.044172,-0.0082 -0.067986,-0.03691 -0.023814,-0.02869 -0.033588,-0.05217 -0.02172,-0.05217 0.011868,0 -0.033605,-0.07229 -0.1010493,-0.160651 -0.067445,-0.08836 -0.1143846,-0.173986 -0.1043105,-0.190286 0.010074,-0.0163 0.00623,-0.03711 -0.00853,-0.04624 -0.014768,-0.0091 -0.031279,-2.442281 -0.036692,-5.407003 L 4.0105136,9.4680489 6.953846,7.1905914 C 8.5726787,5.9379898 9.934763,4.8815999 9.9806993,4.8430583 10.026636,4.8045167 10.100605,4.7493322 10.145075,4.720426 c 0.04447,-0.028906 0.109787,-0.080149 0.14515,-0.1138729 0.03536,-0.033724 0.0748,-0.061316 0.08764,-0.061316 0.01284,0 0.04831,-0.022919 0.07883,-0.05093 0.18431,-0.1691469 0.216622,-0.1943343 0.249304,-0.1943343 0.01988,0 0.04521,-0.023651 0.05631,-0.052557 0.01109,-0.028906 0.04124,-0.052557 0.06699,-0.052557 0.02575,0 0.07137,-0.035042 0.101365,-0.077872 0.03,-0.042829 0.05507,-0.062538 0.05571,-0.043797 6.42e-4,0.018741 0.03022,-7.309e-4 0.06573,-0.043271 0.03551,-0.04254 0.0726,-0.069302 0.08244,-0.059471 0.0098,0.00983 0.05121,-0.0245 0.09194,-0.076291 0.04074,-0.051791 0.0746,-0.080213 0.07524,-0.063161 6.41e-4,0.017052 0.03218,-0.00622 0.07008,-0.051713 0.0379,-0.045494 0.06891,-0.072711 0.06891,-0.060483 0,0.012229 0.115715,-0.06486 0.257143,-0.1713074 0.141429,-0.1064478 0.276957,-0.1935415 0.301172,-0.1935415 0.02422,0 0.08766,0.031068 0.140988,0.06904 0.05333,0.037972 0.107003,0.058995 0.119281,0.046717 0.01228,-0.012278 0.02232,-0.00479 0.02232,0.016642 0,0.021431 0.03965,0.059535 0.08812,0.084675 0.123594,0.064111 7.613579,5.8929303 7.601108,5.915297 -0.0056,0.010051 -0.01432,2.4578791 -0.01936,5.4396201 -0.005,2.98174 -0.0204,5.421345 -0.03412,5.421345 -0.01372,0 -0.03577,0.04336 -0.04899,0.09635 -0.02853,0.114344 -0.187052,0.332392 -0.22472,0.309112 -0.01451,-0.009 -0.06821,0.02249 -0.119342,0.0699 -0.183909,0.17053 -0.19229,0.171333 -1.911452,0.183104 -0.89307,0.0061 -1.61622,-0.0016 -1.607001,-0.0171 0.0092,-0.01552 0.0067,-2.101577 -0.0056,-4.635687 -0.0222,-4.578637 -0.0228,-4.608458 -0.09567,-4.765142 -0.04033,-0.08672 -0.147676,-0.225882 -0.238542,-0.309252 -0.311078,-0.285416 -0.03058,-0.264977 -3.664761,-0.267036 -3.6405514,-0.0021 -3.3482551,-0.02336 -3.6647604,0.267036 -0.090866,0.08337 -0.1978981,0.222534 -0.2378486,0.309252 -0.072022,0.156336 -0.072792,0.196818 -0.090928,4.782661 l -0.018292,4.624991 -1.5416636,0.0037 c -0.8479149,0.002 -1.470712,-0.008 -1.3839934,-0.02233 z"
     id="path4523"
     inkscape:connector-curvature="0" />
  <path
     style="fill:#a0a0a0;stroke:none;stroke-width:0.03503781px;stroke-linecap:butt;stroke-linejoin:miter;stroke-opacity:1"
     d="m 10.027502,20.989648 c -0.01285,-0.01285 -0.02336,-1.81817 -0.02336,-4.011829 v -3.98847 h 1.997155 1.997155 v 4.011829 4.011829 h -1.973796 c -1.085588,0 -1.984308,-0.01051 -1.997155,-0.02336 z"
     id="path4525"
     inkscape:connector-curvature="0" />
  <path
     style="fill:#a0a0a0;stroke:none;stroke-width:0.03503781px;stroke-linecap:butt;stroke-linejoin:miter;stroke-opacity:1"
     d="M 5.0156928,20.974102 C 4.6983181,20.949571 4.6164248,20.930919 4.5251634,20.862378 4.4649106,20.817126 4.3913573,20.771213 4.3617118,20.760348 4.3320663,20.749484 4.2453477,20.640275 4.1690039,20.517663 L 4.0301969,20.294732 4.0214343,14.88139 4.0126717,9.4680489 7.2045999,6.9978835 C 8.9601604,5.6392925 10.46197,4.4767349 10.541954,4.4144222 c 0.07998,-0.062313 0.17696,-0.1369223 0.215502,-0.1657991 0.03854,-0.028877 0.252314,-0.1907484 0.475049,-0.3597146 0.222735,-0.1689662 0.492452,-0.3673989 0.599371,-0.4409616 l 0.194397,-0.1337504 0.119038,0.081194 c 0.06547,0.044656 0.402784,0.3009896 0.749585,0.5696293 1.705592,1.3211896 5.592542,4.3440625 6.302369,4.9013388 l 0.801566,0.6293004 -0.02141,5.276904 c -0.01178,2.902297 -0.03421,5.366579 -0.04986,5.476181 -0.03508,0.245779 -0.141026,0.401421 -0.389645,0.572441 -0.186997,0.128631 -0.188567,0.128993 -0.699855,0.161505 -0.28184,0.01792 -1.032749,0.02813 -1.668685,0.02269 l -1.156248,-0.0099 -0.01775,-4.624991 c -0.01999,-5.208411 0.0083,-4.732313 -0.300822,-5.062792 -0.279657,-0.298976 -0.08198,-0.283442 -3.70015,-0.290755 -2.5341428,-0.0051 -3.194807,0.0028 -3.3186253,0.03986 -0.1998129,0.05979 -0.5390774,0.39128 -0.5999359,0.586193 -0.032502,0.104095 -0.048225,1.257911 -0.064661,4.745011 l -0.021716,4.607472 -1.2963989,0.004 c -0.7130194,0.0022 -1.4678393,-0.0092 -1.6773775,-0.02542 z"
     id="path4527"
     inkscape:connector-curvature="0" />
  <path
     style="fill:#a0a0a0;stroke:none;stroke-width:0.03503781px;stroke-linecap:butt;stroke-linejoin:miter;stroke-opacity:1"
     d="M 4.9167617,20.994428 C 4.9065435,20.98421 4.8526729,20.969761 4.7970492,20.96232 4.4821879,20.920196 4.1699789,20.647914 4.0535388,20.313894 4.0231045,20.22659 4.012678,18.827785 4.012678,14.832092 V 9.4675034 L 7.5952938,6.691514 C 9.5657325,5.1647198 11.202883,3.8916562 11.233406,3.8624838 c 0.03052,-0.029173 0.07438,-0.053041 0.09745,-0.053041 0.02308,0 0.05103,-0.023651 0.06213,-0.052557 0.01109,-0.028906 0.04124,-0.052557 0.06699,-0.052557 0.02575,0 0.07137,-0.035042 0.101365,-0.077872 0.03,-0.042829 0.05507,-0.062538 0.05571,-0.043797 6.41e-4,0.018741 0.03217,-0.00315 0.07008,-0.048642 0.0379,-0.045494 0.06891,-0.072863 0.06891,-0.060819 0,0.012044 0.06443,-0.020743 0.143187,-0.072859 0.09836,-0.065094 0.157558,-0.084444 0.189097,-0.061813 0.117498,0.084314 0.921379,0.7066739 4.287171,3.3191028 l 3.620877,2.8104193 -0.02533,5.3082281 c -0.01393,2.919525 -0.02898,5.363412 -0.03343,5.43086 -0.02356,0.356441 -0.353454,0.694954 -0.750673,0.770285 -0.108707,0.02062 -0.819397,0.03559 -1.68948,0.03559 h -1.501844 l -0.003,-3.862919 c -0.0033,-4.290571 -0.02557,-5.404812 -0.111924,-5.597289 -0.06474,-0.144296 -0.272667,-0.350899 -0.445719,-0.442872 -0.117067,-0.06222 -0.272896,-0.06518 -3.433705,-0.06518 H 8.6902253 l -0.164245,0.09655 c -0.2156857,0.12679 -0.4156065,0.374013 -0.4537984,0.561169 -0.016628,0.08148 -0.04057,2.209687 -0.053205,4.729343 l -0.022972,4.581194 H 6.4656726 c -0.8416828,0 -1.5386927,-0.0084 -1.5489109,-0.01858 z"
     id="path4529"
     inkscape:connector-curvature="0" />
  <path
     style="fill:#f5b057;stroke:none;stroke-width:0.03503781px;stroke-linecap:butt;stroke-linejoin:miter;stroke-opacity:1;fill-opacity:1"
     d="m 10.004143,17.001178 v -4.011829 h 1.997155 1.997155 v 4.011829 4.011829 h -1.997155 -1.997155 z"
     id="path4531"
     inkscape:connector-curvature="0" />
  <path
     style="fill:#f5b057;stroke:none;stroke-width:0.03503781px;stroke-linecap:butt;stroke-linejoin:miter;stroke-opacity:1;fill-opacity:1"
     d="M 4.7411957,20.963878 C 4.4315304,20.880525 4.1578952,20.622732 4.053273,20.315782 4.0231998,20.22755 4.012678,18.805506 4.012678,14.829308 V 9.4619352 L 4.5294856,9.0624933 c 2.496137,-1.9292696 6.9749354,-5.4042126 7.0192604,-5.4459981 0.03052,-0.028774 0.0731,-0.052317 0.09461,-0.052317 0.02151,0 0.05173,-0.019709 0.06714,-0.043797 0.01541,-0.024088 0.100736,-0.081696 0.18961,-0.1280167 l 0.161592,-0.08422 2.729028,2.1188718 c 1.500965,1.1653795 3.286669,2.551358 3.96823,3.079952 l 1.239201,0.9610804 -0.02382,5.3432663 c -0.0131,2.938796 -0.02914,5.394368 -0.03565,5.456827 -0.02497,0.239763 -0.232489,0.491664 -0.544415,0.660837 -0.114576,0.06214 -0.23024,0.06723 -1.76065,0.07746 l -1.638018,0.01095 -0.0022,-3.584806 c -0.0012,-1.971643 -0.01462,-4.07606 -0.0298,-4.676482 l -0.0276,-1.091677 -0.09214,-0.157232 c -0.10455,-0.178405 -0.264289,-0.32455 -0.443894,-0.406122 -0.108458,-0.04926 -0.481045,-0.05707 -3.223479,-0.06761 -1.705465,-0.0066 -3.1995074,-0.0015 -3.3200938,0.01127 -0.4179793,0.04418 -0.7496917,0.376913 -0.7909495,0.793379 -0.012136,0.122507 -0.032815,2.236976 -0.045953,4.69882 l -0.023887,4.47608 -1.5447306,-0.0024 c -1.1302792,-0.0017 -1.5889857,-0.01428 -1.7096769,-0.04676 z"
     id="path4533"
     inkscape:connector-curvature="0" />
</svg>
