<?xml version="1.0" encoding="UTF-8" standalone="no"?>
<svg
   xmlns:dc="http://purl.org/dc/elements/1.1/"
   xmlns:cc="http://creativecommons.org/ns#"
   xmlns:rdf="http://www.w3.org/1999/02/22-rdf-syntax-ns#"
   xmlns:svg="http://www.w3.org/2000/svg"
   xmlns="http://www.w3.org/2000/svg"
   xmlns:sodipodi="http://sodipodi.sourceforge.net/DTD/sodipodi-0.dtd"
   xmlns:inkscape="http://www.inkscape.org/namespaces/inkscape"
   width="8"
   height="8"
   viewBox="0 0 8 8"
   version="1.1"
   id="svg3682"
   sodipodi:docname="home-orange.svg"
   inkscape:version="0.92.1 r15371">
  <metadata
     id="metadata3688">
    <rdf:RDF>
      <cc:Work
         rdf:about="">
        <dc:format>image/svg+xml</dc:format>
        <dc:type
           rdf:resource="http://purl.org/dc/dcmitype/StillImage" />
        <dc:title></dc:title>
      </cc:Work>
    </rdf:RDF>
  </metadata>
  <defs
     id="defs3686">
    <pattern
       inkscape:stockid="Stripes 1:1"
       id="Strips1_1"
       patternTransform="translate(0,0) scale(10,10)"
       height="1"
       width="2"
       patternUnits="userSpaceOnUse"
       inkscape:collect="always">
      <rect
         id="rect5247"
         height="2"
         width="1"
         y="-0.5"
         x="0"
         style="fill:black;stroke:none" />
    </pattern>
  </defs>
  <sodipodi:namedview
     pagecolor="#ffffff"
     bordercolor="#666666"
     borderopacity="1"
     objecttolerance="10"
     gridtolerance="10"
     guidetolerance="10"
     inkscape:pageopacity="0"
     inkscape:pageshadow="2"
     inkscape:window-width="1427"
     inkscape:window-height="936"
     id="namedview3684"
     showgrid="false"
     inkscape:zoom="88.299419"
     inkscape:cx="2.1596708"
     inkscape:cy="3.5469959"
     inkscape:window-x="0"
     inkscape:window-y="0"
     inkscape:window-maximized="0"
     inkscape:current-layer="svg3682" />
  <path
     d="M4 0l-4 3h1v4h2v-2h2v2h2v-4.03l1 .03-4-3z"
     id="path3680" />
  <path
     style="stroke-width:0.0113251;stroke:#f5b057;stroke-opacity:0"
     d="M 1.0033778,4.9944643 V 2.9900415 L 0.51635916,2.9870898 0.02934054,2.9841383 2.007109,1.5005498 C 3.0948817,0.68457613 3.9889179,0.01538969 3.9938562,0.01346881 4.0013478,0.01055475 7.9283225,2.9471496 7.9626535,2.9813386 7.9736907,2.9923301 7.7922848,2.9898218 7.218028,2.9710426 L 6.9943572,2.9637282 V 4.9813077 6.9988872 H 5.9977481 5.0011391 V 5.9966156 4.994344 H 3.9988675 2.9965959 V 5.9966156 6.9988872 H 1.9999868 1.0033778 Z"
     id="path3690"
     inkscape:connector-curvature="0" />
  <path
     style="stroke:#f5b057;stroke-width:0.0113251;stroke-opacity:0"
     d="M 4 0.01171875 C 3.9961565 0.01171875 3.1015483 0.68051603 2.0117188 1.4980469 L 0.029296875 2.984375 L 0.515625 2.9902344 C 0.78239703 2.9937603 1.000619 2.9988532 1.0039062 3 L 1.0058594 4.9980469 L 1.0097656 6.9980469 L 2 6.9980469 L 2.9902344 6.9980469 L 2.9902344 5.9960938 L 2.9902344 4.9941406 L 3.9980469 4.9941406 L 5.0058594 4.9941406 L 5.0058594 5.9960938 L 5.0058594 6.9980469 L 6.0039062 6.9980469 L 7 6.9980469 L 7 4.9804688 L 7 2.9628906 L 7.2011719 2.9707031 L 7.2070312 2.9707031 C 7.3188403 2.974691 7.5344682 2.982416 7.6914062 2.9863281 C 7.6932837 2.9863758 7.6954063 2.9862812 7.6972656 2.9863281 L 7.9804688 2.9921875 L 5.9921875 1.5019531 C 4.8995492 0.68210641 4.00384 0.01171875 4 0.01171875 z "
     id="path4497" />
  <path
     style="stroke:url(#Strips1_1);stroke-width:0.0113251;stroke-opacity:0"
     d="M 4 0.01171875 C 3.9961144 0.01171875 3.1015061 0.68051603 2.0117188 1.4980469 L 0.029296875 2.984375 L 0.3515625 2.9902344 C 0.52908349 2.9940444 0.74992198 2.999145 0.84179688 3 L 1.0097656 3.0019531 L 1.0097656 5 L 1.0097656 6.9980469 L 2 6.9980469 L 2.9902344 6.9980469 L 2.9902344 5.9960938 L 2.9902344 4.9941406 L 3.9980469 4.9941406 L 5.0058594 4.9941406 L 5.0058594 5.9960938 L 5.0058594 6.9980469 L 6.0039062 6.9980469 L 7 6.9980469 L 7 4.9804688 L 7 2.9628906 L 7.1777344 2.9707031 L 7.2011719 2.9707031 C 7.305343 2.9747125 7.5048578 2.9824239 7.6679688 2.9863281 C 7.675817 2.9865267 7.6838203 2.9861408 7.6914062 2.9863281 L 7.9804688 2.9921875 L 7.8945312 2.9277344 C 7.8187299 2.8686851 6.9236651 2.1991898 5.9921875 1.5019531 C 4.9026374 0.68441069 4.0147679 0.019401969 4.0058594 0.015625 C 4.0058341 0.015614295 4.000011 0.01171875 4 0.01171875 z "
     id="path4502" />
  <path
     style="stroke:#ff0000;stroke-width:0.0113251;stroke-opacity:0;fill:#f5b057;fill-opacity:1"
     d="M 1.0090403,5.0000066 V 3.0011259 L 0.81934486,2.999653 C 0.71501235,2.9988432 0.49459753,2.9950207 0.32953416,2.9911592 L 0.02941893,2.9841383 2.0109042,1.4974369 C 3.100721,0.67975107 3.9979956,0.01288673 4.0048476,0.0155161 c 0.012911,0.0049545 3.8156247,2.8511467 3.9173387,2.931985 l 0.057455,0.045663 -0.3114404,-0.00753 C 7.4969086,2.9814992 7.2764938,2.9748646 7.1783901,2.9708948 l -0.1783703,-0.00722 v 2.017605 2.0176051 H 6.0034107 5.0068016 V 5.9966156 4.994344 H 3.9988675 2.9909333 V 5.9966156 6.9988872 H 1.9999868 1.0090403 Z"
     id="path5965"
     inkscape:connector-curvature="0" />
  <path
     style="opacity:0"
     d="M 1.0090403,5.0017146 V 3.0045421 L 0.89862058,2.9972301 C 0.83788971,2.9932084 0.67863045,2.9898684 0.54471111,2.989808 0.41079177,2.9897474 0.24407005,2.9864047 0.1742184,2.9823796 L 0.04721539,2.9750613 1.2104653,2.1024595 C 2.8270252,0.88981127 3.8886834,0.09897878 3.9776243,0.0411941 l 0.02972,-0.01930889 0.5591855,0.41683057 C 5.8699882,1.4103457 7.9631547,2.9817495 7.9592043,2.9856999 7.954179,2.9907253 7.2022162,2.9702982 7.0821267,2.9618741 l -0.082107,-0.00576 V 4.9775008 6.9988872 H 6.0034107 5.0068016 V 5.9966156 4.994344 H 3.9988675 2.9909333 V 5.9966156 6.9988872 H 1.9999868 1.0090403 Z"
     id="path5967"
     inkscape:connector-curvature="0" />
</svg>
